<svg width="410" height="134" viewBox="0 0 410 134" fill="none" xmlns="http://www.w3.org/2000/svg">
<rect width="409.2" height="134" fill="white"/>
<g clip-path="url(#clip0)">
<path d="M41.5871 92.0417C41.9846 85.9718 41.493 76.8703 36.8948 67.9801C34.1894 62.752 28.6702 59.6545 24.3094 57.9383C24.5492 58.6632 24.8231 59.386 25.1311 60.1068L29.9387 71.2852L41.3185 94.943C41.4255 94.0299 41.5188 93.0593 41.5871 92.0417Z" fill="#439775"/>
<path d="M25.1076 53.8466C28.3394 55.0529 31.195 56.5441 33.5954 58.2777C36.6733 60.5 39.0107 63.127 40.5439 66.0941C42.7812 70.4191 44.3258 75.1396 45.1361 80.1245C45.7854 84.1983 45.9672 88.3328 45.6778 92.4478C45.5274 94.6521 45.2508 96.8459 44.8493 99.0186C50.3534 93.845 55.1185 83.9123 48.7799 65.3993C47.9918 63.1222 47.4072 60.7798 47.0327 58.3997C45.7205 58.1664 44.4677 57.6757 43.3466 56.9558C42.2254 56.2359 41.2583 55.3012 40.5012 54.2058C39.744 53.1103 39.2117 51.8758 38.9352 50.5736C38.6587 49.2715 38.6434 47.9275 38.8902 46.6193C39.137 45.3112 39.6409 44.0649 40.373 42.9525C41.105 41.8402 42.0506 40.8837 43.155 40.1386C44.2594 39.3934 45.5008 38.8744 46.8073 38.6113C48.1138 38.3483 49.4596 38.3466 50.7668 38.6062C51.6141 37.2341 52.5698 35.9317 53.6247 34.7116C56.4522 31.43 59.5953 29.1266 61.9775 27.665C58.3488 25.4957 54.0943 24.1879 49.4301 24.0826C49.2207 24.078 49.0111 24.0757 48.8012 24.0757C48.5913 24.0757 48.3816 24.078 48.1722 24.0826C32.3967 24.4372 21.3052 38.5479 23.2208 53.1882C23.8345 53.3882 24.465 53.6064 25.1076 53.8466Z" fill="#48BF84"/>
<path d="M65.6251 30.3041C63.5107 31.4505 59.8085 33.7895 56.6449 37.5022C55.9026 38.3702 55.2169 39.2849 54.5919 40.2406C56.18 41.3532 57.4131 42.8997 58.1432 44.6947C58.8733 46.4896 59.0695 48.4568 58.7082 50.3604C58.347 52.2639 57.4436 54.023 56.1065 55.4266C54.7694 56.8302 53.0552 57.8188 51.1696 58.2739C51.5144 60.2435 52.0164 62.1823 52.671 64.0718C56.7996 76.1299 57.006 86.296 53.2855 94.2867C51.9422 97.1775 50.0572 99.7847 47.7322 101.968C47.0451 102.613 46.3233 103.22 45.57 103.786L48.4362 109.747C48.4667 109.818 48.5175 109.879 48.5822 109.922C48.6469 109.964 48.7228 109.987 48.8004 109.987C48.8779 109.987 48.9538 109.964 49.0185 109.922C49.0833 109.879 49.134 109.818 49.1645 109.747L67.6636 71.2852L72.4712 60.1068C77.1817 49.1557 73.6987 37.3128 65.6251 30.3041Z" fill="#439775"/>
</g>
<g clip-path="url(#clip1)">
<path d="M117.994 55.0124C118.86 55.4481 119.368 56.1349 119.518 57.073C119.669 58.011 119.427 58.8654 118.793 59.6363C118.606 59.9183 118.359 60.1548 118.069 60.3286C117.78 60.5023 117.455 60.6089 117.12 60.6406C116.405 60.7016 115.688 60.5626 115.046 60.2391C114.239 59.8676 113.395 59.5811 112.528 59.3843C111.619 59.1803 110.69 59.0792 109.759 59.0829C107.96 59.0829 106.353 59.3678 104.938 59.9377C103.566 60.476 102.327 61.3088 101.308 62.3782C100.298 63.4517 99.5229 64.7273 99.0346 66.1219C98.503 67.6562 98.241 69.2718 98.2603 70.8965C98.2603 72.9405 98.554 74.7161 99.1416 76.2232C99.6659 77.6423 100.493 78.9287 101.564 79.9922C102.601 81.0007 103.848 81.7646 105.215 82.2288C106.679 82.7253 108.216 82.9715 109.761 82.957C110.666 82.9562 111.569 82.8714 112.459 82.7037C113.365 82.5343 114.24 82.2295 115.056 81.7995C115.697 81.4748 116.419 81.3521 117.13 81.4474C117.472 81.4998 117.801 81.62 118.097 81.8011C118.393 81.9822 118.65 82.2206 118.854 82.5024C119.52 83.3408 119.761 84.2036 119.577 85.091C119.499 85.5137 119.319 85.9108 119.053 86.248C118.788 86.5851 118.445 86.8522 118.054 87.0262C117.194 87.4591 116.3 87.8204 115.381 88.1065C114.474 88.3892 113.549 88.6076 112.611 88.76C111.67 88.9112 110.717 88.9866 109.764 88.9854C107.438 89.001 105.126 88.6116 102.932 87.8342C100.814 87.0812 98.8623 85.9197 97.1864 84.4147C95.5077 82.9076 94.1841 81.0231 93.2155 78.7612C92.2469 76.4993 91.7639 73.8765 91.7664 70.8927C91.7664 68.3133 92.2075 65.9344 93.0896 63.7561C93.9369 61.6318 95.2121 59.7069 96.8351 58.1026C98.4784 56.4936 100.424 55.2297 102.557 54.3843C104.755 53.4969 107.153 53.0528 109.751 53.0519C111.198 53.0515 112.64 53.2215 114.048 53.5585C115.416 53.8822 116.741 54.3703 117.994 55.0124Z" fill="#61D095"/>
<path d="M144.723 61.0927C145.12 61.0803 145.515 61.1497 145.885 61.2967C146.254 61.4438 146.59 61.6652 146.871 61.9476C147.436 62.5175 147.719 63.2545 147.719 64.1588V85.4165C147.73 85.8194 147.661 86.2204 147.515 86.5958C147.369 86.9713 147.15 87.3135 146.871 87.6024C146.296 88.1659 145.525 88.4813 144.722 88.4813C143.92 88.4813 143.149 88.1659 142.574 87.6024C142.294 87.3137 142.075 86.9715 141.929 86.596C141.783 86.2205 141.714 85.8194 141.725 85.4165V82.9532L142.824 83.4066C142.824 83.8422 142.591 84.3699 142.124 84.9897C141.578 85.6853 140.94 86.3016 140.226 86.821C139.36 87.4607 138.41 87.9764 137.403 88.3534C136.277 88.7823 135.082 88.997 133.878 88.9866C131.67 89.0115 129.502 88.3912 127.637 87.2009C125.771 86.013 124.297 84.3716 123.216 82.2769C122.134 80.1821 121.592 77.7784 121.591 75.0656C121.591 72.3191 122.133 69.8984 123.216 67.8037C124.298 65.709 125.755 64.0672 127.587 62.8784C129.4 61.6943 131.52 61.0737 133.682 61.094C135.024 61.0792 136.359 61.2995 137.627 61.7449C138.745 62.1374 139.797 62.6967 140.749 63.404C141.531 63.9737 142.222 64.66 142.798 65.4392C143.28 66.1256 143.522 66.7036 143.522 67.173L141.725 67.824V64.1512C141.714 63.7483 141.783 63.3471 141.929 62.9716C142.075 62.5962 142.294 62.2539 142.574 61.9653C142.852 61.6774 143.187 61.4511 143.557 61.3009C143.927 61.1506 144.324 61.0797 144.723 61.0927ZM134.631 83.456C136.096 83.456 137.378 83.0874 138.477 82.3503C139.59 81.5978 140.479 80.5557 141.05 79.3349C141.68 78.0014 141.996 76.5403 141.974 75.0644C141.974 73.4602 141.666 72.0193 141.05 70.7419C140.479 69.5215 139.59 68.4795 138.477 67.7264C137.377 66.991 136.095 66.6225 134.631 66.6208C133.198 66.6208 131.932 66.9894 130.834 67.7264C129.722 68.4779 128.833 69.5182 128.262 70.7368C127.645 72.0109 127.337 73.4517 127.337 75.0593C127.316 76.5353 127.632 77.9965 128.262 79.3298C128.829 80.552 129.717 81.596 130.829 82.3503C131.932 83.0874 133.199 83.456 134.631 83.456Z" fill="#61D095"/>
<path d="M167.252 61.0927C169.717 61.0927 171.59 61.612 172.872 62.6505C174.155 63.689 175.036 65.0711 175.516 66.7969C175.998 68.5235 176.24 70.4418 176.242 72.5517V85.4165C176.253 85.8192 176.184 86.2201 176.039 86.5956C175.894 86.971 175.676 87.3134 175.397 87.6024C174.822 88.166 174.051 88.4814 173.248 88.4814C172.446 88.4814 171.675 88.166 171.1 87.6024C170.82 87.3138 170.601 86.9715 170.455 86.5961C170.309 86.2206 170.24 85.8194 170.251 85.4165V72.5517C170.264 71.5389 170.121 70.5302 169.827 69.5616C169.563 68.7016 169.028 67.9515 168.302 67.4251C167.57 66.8898 166.52 66.6217 165.155 66.6209C163.823 66.6209 162.699 66.8889 161.783 67.4251C160.9 67.9279 160.174 68.6676 159.685 69.5616C159.195 70.4802 158.945 71.5093 158.961 72.5517V85.4165C158.972 85.8195 158.902 86.2207 158.756 86.5962C158.61 86.9717 158.391 87.3138 158.111 87.6024C157.536 88.1659 156.766 88.4813 155.963 88.4813C155.161 88.4813 154.39 88.1659 153.815 87.6024C153.535 87.3138 153.316 86.9717 153.17 86.5962C153.024 86.2207 152.954 85.8195 152.965 85.4165V64.6578C152.954 64.2548 153.024 63.8536 153.17 63.4782C153.316 63.1027 153.535 62.7605 153.815 62.4719C154.389 61.9075 155.16 61.5915 155.963 61.5915C156.766 61.5915 157.537 61.9075 158.111 62.4719C158.391 62.7606 158.61 63.1028 158.755 63.4783C158.901 63.8538 158.971 64.2549 158.959 64.6578V66.8184L158.204 66.6677C158.566 66.0086 159.001 65.3933 159.502 64.8339C160.1 64.151 160.771 63.5356 161.501 62.9988C162.298 62.4142 163.175 61.9492 164.105 61.6183C165.115 61.2594 166.181 61.0815 167.252 61.0927Z" fill="#61D095"/>
<path d="M207.169 75.0644C207.169 77.8118 206.561 80.232 205.344 82.325C204.179 84.3699 202.489 86.0622 200.451 87.225C198.403 88.3986 196.113 88.9849 193.582 88.9841C191.05 88.9832 188.76 88.3969 186.711 87.225C184.673 86.0622 182.983 84.3699 181.818 82.325C180.601 80.2311 179.993 77.8109 179.993 75.0644C179.993 72.3178 180.601 69.8972 181.818 67.8024C182.988 65.7543 184.677 64.0548 186.713 62.8772C188.76 61.6875 191.051 61.0927 193.583 61.0927C196.115 61.0927 198.404 61.6875 200.451 62.8772C202.486 64.0548 204.175 65.7543 205.346 67.8024C206.561 69.8963 207.169 72.317 207.169 75.0644ZM201.173 75.0644C201.173 73.3546 200.832 71.872 200.15 70.6165C199.511 69.4073 198.562 68.392 197.401 67.6758C196.245 66.9852 194.925 66.6208 193.58 66.6208C192.235 66.6208 190.915 66.9852 189.758 67.6758C188.597 68.3913 187.649 69.4068 187.011 70.6165C186.328 71.8729 185.986 73.3555 185.986 75.0644C185.986 76.7403 186.328 78.206 187.011 79.4615C187.649 80.6708 188.597 81.6859 189.758 82.401C190.915 83.0916 192.235 83.456 193.58 83.456C194.925 83.456 196.245 83.0916 197.401 82.401C198.562 81.6853 199.511 80.6704 200.15 79.4615C200.832 78.2044 201.173 76.7386 201.173 75.0644Z" fill="#61D095"/>
<path d="M221.757 61.0927C223.067 61.0778 224.37 61.2986 225.603 61.7449C226.689 62.1374 227.708 62.6971 228.624 63.404C229.384 63.9826 230.057 64.6681 230.622 65.4392C231.104 66.1256 231.345 66.7036 231.346 67.173L230.049 67.824V64.1512C230.038 63.7483 230.108 63.3472 230.253 62.9717C230.399 62.5962 230.618 62.2539 230.898 61.9653C231.175 61.6751 231.509 61.4463 231.879 61.2936C232.249 61.141 232.646 61.0678 233.046 61.0788C233.912 61.0788 234.628 61.3637 235.195 61.9336C235.762 62.5035 236.044 63.2406 236.044 64.1449V86.5221C236.044 89.4358 235.419 91.7724 234.17 93.532C232.946 95.2712 231.233 96.6016 229.25 97.3516C227.159 98.1496 224.939 98.5502 222.703 98.5332C221.832 98.5135 220.964 98.4288 220.106 98.2799C219.039 98.1111 218.024 97.9101 217.059 97.6771C216.313 97.5095 215.578 97.2912 214.861 97.0236C213.861 96.5879 213.17 96.0434 212.787 95.3899C212.599 95.0806 212.482 94.7333 212.443 94.373C212.404 94.0126 212.445 93.648 212.562 93.3053C212.862 92.3326 213.345 91.6707 214.011 91.3194C214.331 91.1462 214.684 91.045 215.047 91.0232C215.409 91.0013 215.772 91.0592 216.11 91.1928C216.446 91.2924 216.995 91.4934 217.758 91.7956C218.582 92.1172 219.422 92.3941 220.276 92.6252C221.063 92.8579 221.878 92.9856 222.698 93.0051C225.197 93.0051 227.043 92.5023 228.238 91.4968C229.432 90.4912 230.036 89.1014 230.049 87.3275V82.9532L230.649 83.4066C230.649 83.8422 230.424 84.3699 229.974 84.9897C229.447 85.6851 228.825 86.3017 228.126 86.821C227.279 87.4601 226.346 87.976 225.356 88.3534C224.273 88.7775 223.119 88.9923 221.957 88.9866C219.592 88.9866 217.461 88.3918 215.562 87.2022C213.664 86.0125 212.165 84.3712 211.066 82.2781C209.968 80.1843 209.418 77.7805 209.417 75.0669C209.417 72.3203 209.967 69.8997 211.066 67.805C212.166 65.7102 213.648 64.0685 215.512 62.8797C217.378 61.6892 219.547 61.0685 221.757 61.0927ZM222.705 66.6208C221.206 66.6208 219.891 66.9894 218.759 67.7265C217.621 68.4709 216.707 69.5135 216.115 70.7419C215.482 72.016 215.166 73.4568 215.166 75.0644C215.144 76.5431 215.469 78.0062 216.115 79.3349C216.706 80.5638 217.621 81.6065 218.759 82.3503C219.891 83.0874 221.206 83.456 222.705 83.456C224.237 83.456 225.57 83.0874 226.702 82.3503C227.839 81.6058 228.753 80.5632 229.346 79.3349C229.991 78.006 230.316 76.5431 230.295 75.0644C230.295 73.4602 229.979 72.0194 229.346 70.7419C228.753 69.514 227.839 68.4716 226.702 67.7265C225.568 66.9911 224.235 66.6225 222.705 66.6208Z" fill="#61D095"/>
<path d="M244.286 88.4813C243.887 88.4934 243.49 88.4214 243.12 88.2701C242.75 88.1187 242.416 87.8913 242.138 87.6024C241.859 87.3138 241.639 86.9715 241.494 86.596C241.348 86.2205 241.278 85.8194 241.29 85.4165V64.6578C241.278 64.2549 241.348 63.8538 241.494 63.4783C241.639 63.1028 241.859 62.7606 242.138 62.4719C242.713 61.9077 243.484 61.5919 244.287 61.5919C245.09 61.5919 245.861 61.9077 246.435 62.4719C246.715 62.7607 246.934 63.1029 247.08 63.4783C247.226 63.8538 247.296 64.2548 247.285 64.6578V69.3818L246.936 66.0142C247.29 65.2281 247.77 64.5065 248.359 63.879C248.936 63.2637 249.602 62.7382 250.333 62.3199C251.068 61.9004 251.859 61.5874 252.681 61.3903C253.499 61.1915 254.337 61.0903 255.179 61.0889C256.177 61.0889 257.016 61.3739 257.697 61.9438C258.378 62.5137 258.719 63.1837 258.72 63.9537C258.72 65.0597 258.438 65.8555 257.872 66.341C257.365 66.8034 256.707 67.0625 256.022 67.0692C255.43 67.0776 254.842 66.9579 254.299 66.7184C253.74 66.4751 253.135 66.355 252.526 66.3663C251.895 66.3741 251.272 66.5198 250.702 66.7931C250.047 67.1083 249.467 67.5629 249.004 68.1254C248.454 68.787 248.031 69.5448 247.755 70.3607C247.438 71.2498 247.28 72.2967 247.28 73.5016V85.4127C247.291 85.8156 247.221 86.2166 247.076 86.592C246.93 86.9675 246.711 87.3097 246.431 87.5986C246.155 87.8877 245.821 88.1156 245.451 88.2676C245.082 88.4196 244.685 88.4924 244.286 88.4813Z" fill="#61D095"/>
<path d="M282.754 61.0927C283.152 61.0803 283.547 61.1497 283.916 61.2967C284.286 61.4438 284.621 61.6652 284.902 61.9476C285.468 62.5175 285.751 63.2545 285.751 64.1588V85.4164C285.762 85.8193 285.692 86.2204 285.547 86.5958C285.401 86.9713 285.182 87.3135 284.902 87.6024C284.327 88.1659 283.557 88.4813 282.754 88.4813C281.951 88.4813 281.18 88.1659 280.605 87.6024C280.326 87.3137 280.106 86.9715 279.961 86.596C279.815 86.2205 279.746 85.8194 279.757 85.4164V82.9532L280.856 83.4066C280.856 83.8422 280.623 84.3699 280.156 84.9896C279.61 85.6854 278.97 86.3017 278.256 86.821C277.39 87.4606 276.44 87.9764 275.433 88.3534C274.308 88.7823 273.112 88.997 271.908 88.9866C269.7 89.0118 267.531 88.3914 265.666 87.2009C263.8 86.013 262.327 84.3716 261.245 82.2769C260.163 80.1821 259.622 77.778 259.623 75.0643C259.623 72.3178 260.164 69.8972 261.247 67.8024C262.33 65.7077 263.787 64.0659 265.618 62.8771C267.431 61.6938 269.549 61.0732 271.709 61.0927C273.054 61.0776 274.391 61.2983 275.66 61.7449C276.778 62.1374 277.83 62.6967 278.782 63.404C279.564 63.9734 280.255 64.6597 280.831 65.4392C281.313 66.1256 281.554 66.7036 281.555 67.173L279.757 67.824V64.1512C279.746 63.7483 279.815 63.3471 279.961 62.9716C280.106 62.5962 280.326 62.2539 280.605 61.9653C280.884 61.6774 281.218 61.4511 281.588 61.3009C281.958 61.1506 282.356 61.0797 282.754 61.0927ZM272.662 83.456C274.128 83.456 275.41 83.0874 276.509 82.3503C277.622 81.5978 278.511 80.5557 279.082 79.3349C279.711 78.0014 280.027 76.5403 280.006 75.0643C280.006 73.4602 279.698 72.0193 279.082 70.7419C278.511 69.5215 277.621 68.4795 276.509 67.7264C275.41 66.991 274.128 66.6225 272.662 66.6208C271.23 66.6208 269.964 66.9894 268.865 67.7264C267.754 68.4783 266.867 69.5185 266.296 70.7368C265.679 72.0109 265.371 73.4517 265.372 75.0593C265.35 76.5353 265.666 77.9965 266.296 79.3298C266.866 80.5508 267.755 81.593 268.868 82.3453C269.966 83.0857 271.231 83.456 272.662 83.456Z" fill="#61D095"/>
<path d="M304.835 61.0927C307.165 61.0927 309.255 61.6875 311.104 62.8772C312.953 64.0668 314.419 65.7001 315.501 67.7771C316.583 69.8541 317.124 72.2663 317.124 75.0137C317.124 77.7611 316.583 80.1817 315.501 82.2756C314.418 84.3687 312.969 86.01 311.155 87.1996C309.34 88.3893 307.3 88.9841 305.035 88.9841C303.757 88.9939 302.488 88.7725 301.288 88.3306C300.189 87.9322 299.153 87.3736 298.215 86.6728C297.332 86.0033 296.649 85.3249 296.166 84.6376C295.684 83.9503 295.443 83.3724 295.443 82.9038L296.991 82.2503V95.4671C297.002 95.8702 296.933 96.2713 296.787 96.6468C296.641 97.0223 296.421 97.3645 296.141 97.6531C295.864 97.9433 295.53 98.172 295.161 98.3247C294.791 98.4774 294.393 98.5506 293.993 98.5396C293.596 98.5519 293.201 98.4824 292.832 98.3354C292.462 98.1884 292.127 97.967 291.846 97.6847C291.279 97.1148 290.996 96.3777 290.996 95.4735V64.6578C290.985 64.2548 291.054 63.8536 291.2 63.4781C291.346 63.1027 291.566 62.7605 291.846 62.4719C292.42 61.9075 293.191 61.5915 293.993 61.5915C294.796 61.5915 295.567 61.9075 296.141 62.4719C296.421 62.7605 296.641 63.1027 296.787 63.4781C296.933 63.8536 297.002 64.2548 296.991 64.6578V67.1198L296.141 66.6677C296.141 66.232 296.375 65.7043 296.841 65.0846C297.39 64.3836 298.029 63.7585 298.74 63.2254C299.584 62.581 300.517 62.0643 301.51 61.6917C302.572 61.2888 303.699 61.0857 304.835 61.0927ZM304.085 66.6208C302.618 66.6208 301.336 66.9894 300.238 67.7265C299.13 68.4737 298.242 69.5063 297.666 70.7166C297.049 71.9729 296.741 73.4053 296.742 75.0137C296.722 76.4981 297.038 77.9676 297.666 79.3108C298.231 80.5413 299.121 81.5926 300.238 82.3503C301.338 83.0874 302.62 83.456 304.085 83.456C305.551 83.456 306.825 83.0874 307.907 82.3503C309.012 81.5862 309.893 80.5362 310.455 79.3108C311.082 77.9674 311.398 76.498 311.379 75.0137C311.379 73.4053 311.071 71.9729 310.455 70.7166C309.882 69.5115 309.003 68.4799 307.907 67.7265C306.824 66.9911 305.55 66.6225 304.085 66.6208Z" fill="#61D095"/>
<path d="M334.911 61.0927C337.309 61.0927 339.132 61.612 340.381 62.6505C341.63 63.689 342.488 65.0711 342.954 66.7969C343.42 68.5235 343.653 70.4418 343.653 72.5517V85.4165C343.664 85.8194 343.594 86.2204 343.449 86.5958C343.303 86.9713 343.084 87.3135 342.804 87.6024C342.23 88.166 341.459 88.4814 340.656 88.4814C339.853 88.4814 339.082 88.166 338.507 87.6024C338.228 87.3137 338.009 86.9715 337.863 86.596C337.717 86.2205 337.648 85.8194 337.659 85.4165V72.5517C337.672 71.5406 337.537 70.5332 337.259 69.5616C337.017 68.7112 336.509 67.9619 335.811 67.425C335.111 66.8897 334.112 66.6217 332.813 66.6208C331.547 66.6208 330.464 66.8889 329.565 67.425C328.7 67.9259 327.997 68.6679 327.542 69.5616C327.083 70.4899 326.852 71.5152 326.868 72.5517V85.4165C326.879 85.8195 326.81 86.2206 326.664 86.5961C326.518 86.9716 326.298 87.3138 326.018 87.6024C325.444 88.1659 324.673 88.4812 323.871 88.4812C323.068 88.4812 322.297 88.1659 321.723 87.6024C321.443 87.314 321.223 86.9718 321.077 86.5963C320.931 86.2208 320.862 85.8195 320.873 85.4165V54.3589C320.862 53.9558 320.931 53.5546 321.077 53.1791C321.223 52.8036 321.443 52.4614 321.723 52.173C322.297 51.6095 323.068 51.2941 323.871 51.2941C324.673 51.2941 325.444 51.6095 326.018 52.173C326.298 52.4616 326.518 52.8037 326.664 53.1792C326.81 53.5547 326.879 53.9559 326.868 54.3589V66.8222L326.113 66.6715C326.468 66.0203 326.886 65.4061 327.362 64.8377C327.933 64.1472 328.588 63.5308 329.311 63.0025C330.093 62.424 330.951 61.9581 331.861 61.6183C332.838 61.2591 333.871 61.081 334.911 61.0927Z" fill="#61D095"/>
<path d="M351.494 58.3255C350.363 58.3255 349.565 58.141 349.102 57.772C348.639 57.4031 348.405 56.75 348.402 55.8128V54.8617C348.402 53.8907 348.66 53.2288 349.176 52.8759C349.692 52.5229 350.483 52.3473 351.549 52.349C352.715 52.349 353.531 52.5331 353.997 52.9012C354.463 53.2693 354.696 53.9228 354.697 54.8617V55.8166C354.697 56.7884 354.447 57.4499 353.948 57.8012C353.448 58.1524 352.63 58.3272 351.494 58.3255ZM354.542 85.4127C354.553 85.8157 354.484 86.2168 354.338 86.5923C354.192 86.9678 353.972 87.31 353.692 87.5986C353.118 88.1621 352.347 88.4774 351.544 88.4774C350.742 88.4774 349.971 88.1621 349.397 87.5986C349.116 87.3102 348.897 86.968 348.751 86.5925C348.605 86.217 348.535 85.8157 348.547 85.4127V64.6578C348.535 64.2547 348.605 63.8535 348.751 63.478C348.897 63.1024 349.116 62.7603 349.397 62.4719C349.971 61.9075 350.742 61.5915 351.544 61.5915C352.347 61.5915 353.118 61.9075 353.692 62.4719C353.972 62.7605 354.192 63.1026 354.338 63.4781C354.484 63.8536 354.553 64.2548 354.542 64.6578V85.4127Z" fill="#61D095"/>
<path d="M381.069 61.0927C381.466 61.0801 381.861 61.1495 382.231 61.2965C382.6 61.4435 382.936 61.6651 383.217 61.9476C383.783 62.5175 384.066 63.2545 384.066 64.1588V85.4164C384.078 85.8195 384.008 86.2206 383.862 86.5961C383.716 86.9716 383.497 87.3138 383.217 87.6024C382.642 88.1658 381.871 88.4812 381.069 88.4812C380.266 88.4812 379.496 88.1658 378.921 87.6024C378.641 87.3138 378.422 86.9716 378.276 86.5961C378.13 86.2206 378.06 85.8195 378.071 85.4164V82.9532L379.17 83.4066C379.17 83.8422 378.937 84.3699 378.472 84.9896C377.926 85.6853 377.287 86.3016 376.573 86.8209C375.707 87.4604 374.757 87.9761 373.75 88.3534C372.624 88.7821 371.429 88.9968 370.225 88.9866C368.016 89.0125 365.847 88.3926 363.981 87.2022C362.115 86.0142 360.641 84.3729 359.559 82.2781C358.477 80.1834 357.936 77.7796 357.936 75.0669C357.936 72.3203 358.477 69.8997 359.559 67.805C360.641 65.7102 362.098 64.0685 363.93 62.8797C365.744 61.6955 367.864 61.0749 370.026 61.0952C371.37 61.0794 372.706 61.2993 373.974 61.7449C375.092 62.1371 376.145 62.6964 377.097 63.404C377.879 63.9734 378.569 64.6597 379.145 65.4392C379.627 66.1256 379.869 66.7036 379.87 67.173L378.071 67.824V64.1512C378.06 63.7482 378.13 63.347 378.276 62.9715C378.422 62.596 378.641 62.2539 378.921 61.9653C379.199 61.6775 379.534 61.4512 379.903 61.3009C380.273 61.1507 380.67 61.0797 381.069 61.0927ZM370.977 83.4559C372.442 83.4559 373.725 83.0874 374.824 82.3503C375.937 81.5981 376.826 80.5558 377.396 79.3349C378.027 78.0017 378.343 76.5404 378.322 75.0643C378.322 73.4602 378.013 72.0193 377.396 70.7419C376.825 69.5209 375.934 68.4788 374.821 67.7264C373.722 66.991 372.439 66.6225 370.973 66.6208C369.542 66.6208 368.277 66.9894 367.177 67.7264C366.067 68.4786 365.179 69.5188 364.608 70.7368C363.991 72.0109 363.683 73.4517 363.684 75.0593C363.662 76.5353 363.978 77.9965 364.608 79.3298C365.178 80.5508 366.068 81.5931 367.181 82.3453C368.28 83.0857 369.546 83.4559 370.977 83.4559Z" fill="#61D095"/>
</g>
<defs>
<clipPath id="clip0">
<rect width="51.6" height="86" fill="white" transform="translate(23 24)"/>
</clipPath>
<clipPath id="clip1">
<rect width="292.4" height="47.3" fill="white" transform="translate(91.8 51.2333)"/>
</clipPath>
</defs>
</svg>
